<svg width="214" height="38" viewBox="0 0 214 38" fill="none" xmlns="http://www.w3.org/2000/svg">
<path d="M13.43 1.58199C16.7107 1.58199 19.4117 2.38366 21.533 3.98699C23.6543 5.59033 24.974 7.76099 25.492 10.499H18.795C18.351 9.56166 17.6727 8.82166 16.76 8.27899C15.8473 7.71166 14.7497 7.42799 13.467 7.42799C11.469 7.42799 9.86567 8.10633 8.65701 9.46299C7.44834 10.795 6.84401 12.608 6.84401 14.902C6.84401 17.3933 7.47301 19.305 8.73101 20.637C10.0137 21.969 11.8267 22.635 14.17 22.635C15.6747 22.635 16.9943 22.228 18.129 21.414C19.2637 20.5753 20.0653 19.3913 20.534 17.862H12.542V13.311H25.825V19.564C25.3317 21.0933 24.5423 22.5117 23.457 23.819C22.3717 25.1263 20.978 26.187 19.276 27.001C17.5987 27.815 15.6747 28.222 13.504 28.222C10.8647 28.222 8.55834 27.667 6.58501 26.557C4.61167 25.4223 3.08234 23.8437 1.99701 21.821C0.936339 19.7983 0.406006 17.492 0.406006 14.902C0.406006 12.312 0.936339 10.0057 1.99701 7.983C3.08234 5.96033 4.59934 4.39399 6.54801 3.28399C8.52134 2.14933 10.8153 1.58199 13.43 1.58199Z" fill="#1B2331"/>
<path d="M39.0236 7.095C41.0709 7.095 42.8963 7.52666 44.4996 8.38999C46.1276 9.22866 47.3979 10.4497 48.3106 12.053C49.2479 13.6563 49.7166 15.531 49.7166 17.677C49.7166 19.823 49.2479 21.6977 48.3106 23.301C47.3979 24.9043 46.1276 26.1377 44.4996 27.001C42.8963 27.8397 41.0709 28.259 39.0236 28.259C36.9763 28.259 35.1386 27.8397 33.5106 27.001C31.8826 26.1377 30.5999 24.9043 29.6626 23.301C28.7499 21.6977 28.2936 19.823 28.2936 17.677C28.2936 15.531 28.7499 13.6563 29.6626 12.053C30.5999 10.4497 31.8826 9.22866 33.5106 8.38999C35.1386 7.52666 36.9763 7.095 39.0236 7.095ZM39.0236 12.571C37.8149 12.571 36.7913 13.015 35.9526 13.903C35.1386 14.7663 34.7316 16.0243 34.7316 17.677C34.7316 19.3297 35.1386 20.5877 35.9526 21.451C36.7913 22.3143 37.8149 22.746 39.0236 22.746C40.2323 22.746 41.2436 22.3143 42.0576 21.451C42.8716 20.5877 43.2786 19.3297 43.2786 17.677C43.2786 16.0243 42.8716 14.7663 42.0576 13.903C41.2436 13.015 40.2323 12.571 39.0236 12.571Z" fill="#1B2331"/>
<path d="M62.6545 7.095C64.7018 7.095 66.5271 7.52666 68.1305 8.38999C69.7585 9.22866 71.0288 10.4497 71.9415 12.053C72.8788 13.6563 73.3475 15.531 73.3475 17.677C73.3475 19.823 72.8788 21.6977 71.9415 23.301C71.0288 24.9043 69.7585 26.1377 68.1305 27.001C66.5271 27.8397 64.7018 28.259 62.6545 28.259C60.6071 28.259 58.7695 27.8397 57.1415 27.001C55.5135 26.1377 54.2308 24.9043 53.2935 23.301C52.3808 21.6977 51.9245 19.823 51.9245 17.677C51.9245 15.531 52.3808 13.6563 53.2935 12.053C54.2308 10.4497 55.5135 9.22866 57.1415 8.38999C58.7695 7.52666 60.6071 7.095 62.6545 7.095ZM62.6545 12.571C61.4458 12.571 60.4221 13.015 59.5835 13.903C58.7695 14.7663 58.3625 16.0243 58.3625 17.677C58.3625 19.3297 58.7695 20.5877 59.5835 21.451C60.4221 22.3143 61.4458 22.746 62.6545 22.746C63.8631 22.746 64.8745 22.3143 65.6885 21.451C66.5025 20.5877 66.9095 19.3297 66.9095 17.677C66.9095 16.0243 66.5025 14.7663 65.6885 13.903C64.8745 13.015 63.8631 12.571 62.6545 12.571Z" fill="#1B2331"/>
<path d="M84.4723 7.095C86.051 7.095 87.4077 7.45266 88.5423 8.16799C89.677 8.88333 90.5033 9.85766 91.0213 11.091V0.619995H97.3483V28H91.0213V24.263C90.5033 25.4963 89.677 26.4707 88.5423 27.186C87.4077 27.9013 86.051 28.259 84.4723 28.259C82.7703 28.259 81.241 27.8397 79.8843 27.001C78.5523 26.1377 77.4917 24.9043 76.7023 23.301C75.9377 21.6977 75.5553 19.823 75.5553 17.677C75.5553 15.5063 75.9377 13.6317 76.7023 12.053C77.4917 10.4497 78.5523 9.22866 79.8843 8.38999C81.241 7.52666 82.7703 7.095 84.4723 7.095ZM86.5073 12.645C85.1507 12.645 84.053 13.089 83.2143 13.977C82.4003 14.865 81.9933 16.0983 81.9933 17.677C81.9933 19.2557 82.4003 20.489 83.2143 21.377C84.053 22.265 85.1507 22.709 86.5073 22.709C87.8393 22.709 88.9247 22.2527 89.7633 21.34C90.6267 20.4273 91.0583 19.2063 91.0583 17.677C91.0583 16.123 90.6267 14.902 89.7633 14.014C88.9247 13.1013 87.8393 12.645 86.5073 12.645Z" fill="#1B2331"/>
<path d="M120.5 20.637C120.5 22.0183 120.143 23.2887 119.427 24.448C118.737 25.6073 117.701 26.5323 116.319 27.223C114.963 27.9137 113.31 28.259 111.361 28.259C108.426 28.259 106.009 27.5437 104.109 26.113C102.21 24.6823 101.174 22.6843 101.001 20.119H107.735C107.834 21.1057 108.179 21.8827 108.771 22.45C109.388 23.0173 110.165 23.301 111.102 23.301C111.916 23.301 112.558 23.079 113.026 22.635C113.495 22.191 113.729 21.599 113.729 20.859C113.729 20.193 113.507 19.638 113.063 19.194C112.644 18.75 112.114 18.3923 111.472 18.121C110.831 17.825 109.943 17.4797 108.808 17.085C107.156 16.5177 105.799 15.975 104.738 15.457C103.702 14.9143 102.802 14.125 102.037 13.089C101.297 12.0283 100.927 10.6593 100.927 8.982C100.927 7.42799 101.322 6.08366 102.111 4.94899C102.901 3.81433 103.986 2.95099 105.367 2.35899C106.773 1.74233 108.377 1.43399 110.177 1.43399C113.088 1.43399 115.394 2.12466 117.096 3.50599C118.823 4.88733 119.797 6.78666 120.019 9.20399H113.174C113.051 8.34066 112.73 7.66233 112.212 7.16899C111.719 6.65099 111.041 6.39199 110.177 6.39199C109.437 6.39199 108.833 6.58933 108.364 6.98399C107.92 7.37866 107.698 7.95833 107.698 8.72299C107.698 9.33966 107.896 9.86999 108.29 10.314C108.71 10.7333 109.228 11.0787 109.844 11.35C110.461 11.6213 111.349 11.9667 112.508 12.386C114.186 12.9533 115.555 13.5207 116.615 14.088C117.676 14.6307 118.589 15.4323 119.353 16.493C120.118 17.5537 120.5 18.935 120.5 20.637Z" fill="#1B2331"/>
<path d="M135.69 22.561V28H132.841C130.424 28 128.537 27.408 127.18 26.224C125.848 25.0153 125.182 23.0297 125.182 20.267V12.682H122.407V7.35399H125.182V2.28499H131.509V7.35399H135.653V12.682H131.509V20.378C131.509 21.192 131.67 21.7593 131.99 22.08C132.336 22.4007 132.903 22.561 133.692 22.561H135.69Z" fill="#1B2331"/>
<path d="M144.019 7.35399L148.977 20.008L153.602 7.35399H160.595L147.719 37.842H140.763L145.61 27.223L136.952 7.35399H144.019Z" fill="#1B2331"/>
<path d="M169.024 0.619995V28H162.697V0.619995H169.024Z" fill="#1B2331"/>
<path d="M193.002 17.122C193.002 17.64 192.94 18.2073 192.817 18.824H178.498C178.572 20.378 178.967 21.5003 179.682 22.191C180.397 22.857 181.31 23.19 182.42 23.19C183.357 23.19 184.134 22.9557 184.751 22.487C185.368 22.0183 185.775 21.414 185.972 20.674H192.669C192.398 22.1293 191.806 23.4367 190.893 24.596C189.98 25.7307 188.821 26.631 187.415 27.297C186.009 27.9383 184.443 28.259 182.716 28.259C180.693 28.259 178.893 27.8397 177.314 27.001C175.76 26.1377 174.539 24.9043 173.651 23.301C172.763 21.6977 172.319 19.823 172.319 17.677C172.319 15.5063 172.751 13.6317 173.614 12.053C174.502 10.4497 175.735 9.22866 177.314 8.38999C178.893 7.52666 180.693 7.095 182.716 7.095C184.763 7.095 186.564 7.51433 188.118 8.35299C189.672 9.19166 190.868 10.3757 191.707 11.905C192.57 13.4097 193.002 15.1487 193.002 17.122ZM186.601 16.16C186.626 14.8033 186.256 13.792 185.491 13.126C184.751 12.4353 183.826 12.09 182.716 12.09C181.557 12.09 180.595 12.4353 179.83 13.126C179.065 13.8167 178.634 14.828 178.535 16.16H186.601Z" fill="#1B2331"/>
<path d="M203.811 7.095C206.426 7.095 208.51 7.74866 210.064 9.05599C211.643 10.3633 212.63 12.09 213.024 14.236H207.104C206.932 13.3973 206.537 12.7437 205.92 12.275C205.328 11.7817 204.576 11.535 203.663 11.535C202.948 11.535 202.405 11.6953 202.035 12.016C201.665 12.312 201.48 12.7437 201.48 13.311C201.48 13.9523 201.813 14.4333 202.479 14.754C203.17 15.0747 204.243 15.3953 205.698 15.716C207.277 16.086 208.572 16.4683 209.583 16.863C210.595 17.233 211.47 17.8497 212.21 18.713C212.95 19.5763 213.32 20.7357 213.32 22.191C213.32 23.375 213 24.4233 212.358 25.336C211.717 26.2487 210.792 26.964 209.583 27.482C208.375 28 206.944 28.259 205.291 28.259C202.504 28.259 200.272 27.6423 198.594 26.409C196.917 25.1757 195.893 23.412 195.523 21.118H201.628C201.727 22.006 202.097 22.6843 202.738 23.153C203.404 23.6217 204.255 23.856 205.291 23.856C206.007 23.856 206.549 23.6957 206.919 23.375C207.289 23.0297 207.474 22.5857 207.474 22.043C207.474 21.3277 207.129 20.822 206.438 20.526C205.772 20.2053 204.675 19.8723 203.145 19.527C201.616 19.2063 200.358 18.861 199.371 18.491C198.385 18.121 197.534 17.529 196.818 16.715C196.103 15.8763 195.745 14.7417 195.745 13.311C195.745 11.461 196.448 9.96866 197.854 8.83399C199.26 7.67466 201.246 7.095 203.811 7.095Z" fill="#1B2331"/>
</svg>
